<svg width="200" height="200" viewBox="0 0 200 200" fill="none" xmlns="http://www.w3.org/2000/svg">
    <path
        d="M172.92 55.8799C182.43 55.8799 190.32 63.7599 190.22 73.2799V170.36C190.189 174.967 188.342 179.375 185.081 182.629C181.82 185.882 177.407 187.719 172.8 187.74H27.6005C18.0905 187.74 10.2405 179.97 10.2305 170.36V73.2699C10.2305 63.7699 18.1105 55.8799 27.6905 55.8799H172.93H172.92ZM58.6005 83.4799L35.0005 157.33H49.9405L55.1305 138.4H78.9305L84.1305 157.33H99.6705L76.0405 83.4999H58.6005V83.4799ZM108.3 83.4799V157.32H129.32C151.14 157.32 164.99 144.97 164.99 120.06C164.99 95.2499 151.14 83.4899 128.52 83.4899H108.29L108.3 83.4799ZM127.52 95.3399C141.37 95.3399 149.94 102.12 149.94 120.06C149.94 137.99 141.37 145.36 127.52 145.36H123.04V95.3399H127.52ZM67.1705 94.7399C69.3605 102.62 71.3705 111.19 73.6505 118.86L75.8405 126.94H58.3005L60.5005 118.86C62.6905 111.19 64.7805 102.82 66.7705 94.7499H67.1705V94.7399ZM173.27 30.3599C174.97 30.0599 176.51 31.3799 176.49 33.1099V49.7799C176.49 50.7599 175.67 51.5799 174.67 51.5799H31.4005C30.584 51.5342 29.816 51.1777 29.2542 50.5835C28.6923 49.9893 28.3793 49.2026 28.3793 48.3849C28.3793 47.5672 28.6923 46.7804 29.2542 46.1863C29.816 45.5921 30.584 45.2356 31.4005 45.1899L173.26 30.3599H173.27ZM166.53 12.6599C166.839 12.5988 167.157 12.6073 167.462 12.685C167.766 12.7626 168.05 12.9074 168.291 13.1087C168.533 13.31 168.727 13.5627 168.858 13.8484C168.989 14.1341 169.055 14.4455 169.05 14.7599L169 25.0299C169.069 25.2998 169.08 25.5814 169.031 25.8557C168.982 26.1299 168.874 26.3905 168.716 26.6198C168.558 26.8491 168.352 27.0419 168.113 27.185C167.874 27.3282 167.607 27.4185 167.33 27.4499L34.7005 42.3799C33.8981 42.3163 33.1491 41.9526 32.6028 41.3614C32.0566 40.7702 31.7533 39.9948 31.7533 39.1899C31.7533 38.385 32.0566 37.6096 32.6028 37.0184C33.1491 36.4271 33.8981 36.0635 34.7005 35.9999L166.53 12.6699V12.6599Z"
        fill="white" />
</svg>
