<svg width="32" height="32" viewBox="0 0 32 32" fill="none" xmlns="http://www.w3.org/2000/svg">
    <g id="Frame">
        <g id="Group 1073">
            <path id="Ellipse 901 (Stroke)"
                d="M28.5071 16.4844C28.5071 9.45159 22.8055 3.75013 15.7727 3.75C8.73984 3.75 3.03833 9.45151 3.03833 16.4844C3.03846 23.5171 8.73992 29.2188 15.7727 29.2188V30.7188L15.4055 30.7139C7.83591 30.5223 1.73501 24.4211 1.54321 16.8516L1.53833 16.4844C1.53833 8.62308 7.91141 2.25 15.7727 2.25L16.1399 2.25488C23.8314 2.44977 30.0071 8.74593 30.0071 16.4844L30.0022 16.8516C29.8073 24.543 23.511 30.7186 15.7727 30.7188V29.2188C22.8054 29.2186 28.5069 23.517 28.5071 16.4844Z"
                fill="#ffffff66" />
            <path id="Vector 171 (Stroke)"
                d="M22.1194 12.2695L15.2688 22.1982L9.58716 17.8525L10.4993 16.6611L14.928 20.0498L20.884 11.418L22.1194 12.2695Z"
                fill="#ffffff66" />
        </g>
    </g>
</svg>
