<svg width="40" height="40" viewBox="0 0 40 40" fill="none" xmlns="http://www.w3.org/2000/svg">
<g id="Frame">
<path id="Vector" d="M29.5254 32.0083C29.5254 33.1505 28.5963 34.0795 27.4575 34.0795H12.5423C11.4001 34.0762 10.4744 33.1505 10.471 32.0083V10.0368H29.5254V32.0083ZM14.6103 6.32054C14.6103 6.08078 14.7967 5.8943 15.0365 5.8943H24.9866C25.2263 5.8943 25.4095 6.08078 25.4095 6.32054V7.5693H14.6103V6.32054ZM35.7325 7.5693H27.8804V6.32054C27.8804 4.72879 26.5817 3.42676 24.9866 3.42676H15.0365C13.4414 3.43009 12.146 4.72213 12.1427 6.32054V7.5693H4.26389C3.57125 7.5693 3.01514 8.12541 3.01514 8.81472C3.01514 9.50404 3.57125 10.0635 4.26389 10.0635H7.97686V32.0083C7.97686 34.5291 10.0215 36.5737 12.5423 36.5737H27.4541C29.9749 36.5737 32.0196 34.5291 32.0196 32.0083V10.0368H35.7359C36.4252 10.0368 36.9846 9.48073 36.9846 8.78808C36.9846 8.09544 36.4252 7.5693 35.7325 7.5693ZM19.9982 30.3366C20.6875 30.3366 21.247 29.7805 21.247 29.0879V15.8211C21.247 15.1318 20.6909 14.5723 19.9982 14.5723C19.3089 14.5723 18.7495 15.1284 18.7495 15.8211V29.0879C18.7495 29.7772 19.3089 30.3366 19.9982 30.3366ZM14.1873 30.3366C14.8767 30.3366 15.4361 29.7805 15.4361 29.0879V15.8211C15.4361 15.1318 14.88 14.5723 14.1873 14.5723C13.498 14.5723 12.9386 15.1284 12.9386 15.8211V29.0879C12.9652 29.7772 13.5247 30.3366 14.1873 30.3366ZM25.8091 30.3366C26.4984 30.3366 27.0579 29.7805 27.0579 29.0879V15.8211C27.0579 15.1318 26.5017 14.5723 25.8091 14.5723C25.1198 14.5723 24.5603 15.1284 24.5603 15.8211V29.0879C24.5637 29.7772 25.1198 30.3366 25.8091 30.3366Z" fill="#ffffff66"/>
</g>
</svg>
