<svg width="40" height="40" viewBox="0 0 40 40" fill="none" xmlns="http://www.w3.org/2000/svg">
    <g id="Frame">
        <path id="Union"
            d="M26.4155 2.0708C27.0533 1.54252 27.9983 1.63146 28.5269 2.26904C29.0555 2.90688 28.9674 3.85272 28.3296 4.38135L23.3101 8.5415H32.0308C35.3444 8.54153 38.0308 11.2278 38.0308 14.5415V32.1528C38.0307 35.4665 35.3444 38.1538 32.0308 38.1538H7.88916C4.57546 38.1538 1.88918 35.4665 1.88916 32.1528V14.5415C1.88916 11.2278 4.57545 8.5415 7.88916 8.5415H16.3198L11.5571 4.35205C10.9351 3.80498 10.8743 2.85793 11.4214 2.23584C11.9685 1.61377 12.9155 1.55303 13.5376 2.1001L19.769 7.57861L26.4155 2.0708ZM17.4409 15.5581C16.7258 15.1401 15.8072 15.3811 15.3892 16.0962C14.9715 16.8113 15.2123 17.7299 15.9272 18.1479L24.6167 23.228C24.9342 23.4137 24.9494 23.8674 24.645 24.0737L18.9644 27.9194C18.6326 28.1436 18.1846 27.9057 18.1841 27.5054V22.4839C18.1841 21.6555 17.5125 20.9839 16.6841 20.9839C15.8557 20.9839 15.1841 21.6555 15.1841 22.4839V27.5054C15.1846 30.3114 18.322 31.9764 20.646 30.4038L26.3267 26.5581C28.4594 25.1141 28.3548 21.9383 26.1313 20.6382L17.4409 15.5581Z"
            fill="#ffffff" />
    </g>
</svg>
