<svg width="200" height="200" viewBox="0 0 200 200" fill="none" xmlns="http://www.w3.org/2000/svg">
<path d="M156.25 75.0002H151.562C150.703 75.0002 150 74.2971 150 73.4377V50.3909C150 22.7932 127.422 -0.0973447 99.8046 0.000311314C72.2851 0.0979674 50 22.4417 50 50.0002V73.4377C50 74.2971 49.2968 75.0002 48.4375 75.0002H43.75C33.3984 75.0002 25 83.3986 25 93.7502V181.25C25 191.602 33.3984 200 43.75 200H156.25C166.601 200 175 191.602 175 181.25V93.7502C175 83.3986 166.601 75.0002 156.25 75.0002ZM111.269 146.231C108.144 148.594 106.25 152.227 106.25 156.152V168.75C106.25 172.168 103.476 174.961 100.078 175C96.6014 175.039 93.7499 172.109 93.7499 168.613V156.25C93.7499 152.305 91.8749 148.613 88.7108 146.231C84.1796 142.813 81.2499 137.363 81.2499 131.25C81.2499 121.055 89.5311 112.637 99.7264 112.5C110.215 112.344 118.75 120.801 118.75 131.25C118.75 137.363 115.82 142.813 111.269 146.231ZM137.5 73.4377C137.5 74.2971 136.797 75.0002 135.937 75.0002H64.0624C63.2031 75.0002 62.4999 74.2971 62.4999 73.4377V50.0002C62.4999 39.9807 66.4062 30.5667 73.4765 23.4768C80.5663 16.4065 89.9804 12.5003 99.9999 12.5003C110.019 12.5003 119.433 16.4065 126.523 23.4768C133.594 30.5667 137.5 39.9807 137.5 50.0002V73.4377Z" fill="white"/>
<path d="M93.75 131.25C93.75 132.908 94.4085 134.497 95.5806 135.669C96.7527 136.841 98.3424 137.5 100 137.5C101.658 137.5 103.247 136.841 104.419 135.669C105.591 134.497 106.25 132.908 106.25 131.25C106.25 129.592 105.591 128.003 104.419 126.831C103.247 125.658 101.658 125 100 125C98.3424 125 96.7527 125.658 95.5806 126.831C94.4085 128.003 93.75 129.592 93.75 131.25Z" fill="white"/>
</svg>
