<svg width="29" height="29" viewBox="0 0 29 29" fill="none" xmlns="http://www.w3.org/2000/svg">
<g id="Group 1076">
<g id="Group 1075">
<path id="Ellipse 901 (Stroke)" d="M26.9688 14.2344C26.9688 7.20159 21.2671 1.50013 14.2344 1.5C7.20151 1.5 1.5 7.20151 1.5 14.2344C1.50013 21.2671 7.20159 26.9688 14.2344 26.9688V28.4688L13.8672 28.4639C6.29758 28.2723 0.196684 22.1711 0.00488281 14.6016L0 14.2344C0 6.37308 6.37308 0 14.2344 0L14.6016 0.00488281C22.293 0.199773 28.4688 6.49593 28.4688 14.2344L28.4639 14.6016C28.269 22.293 21.9727 28.4686 14.2344 28.4688V26.9688C21.267 26.9686 26.9686 21.267 26.9688 14.2344Z" fill="#ffffff99"/>
</g>
<path id="Vector 173 (Stroke)" d="M20.0167 9.83408L15.6546 14.1962L19.8109 18.3525L18.7503 19.4132L14.5939 15.2568L10.0778 19.7729L9.01718 18.7123L13.5333 14.1962L9.29892 9.96183L10.3596 8.90117L14.5939 13.1355L18.956 8.77342L20.0167 9.83408Z" fill="#ffffff99"/>
</g>
</svg>
