<svg width="32" height="32" viewBox="0 0 32 32" fill="none" xmlns="http://www.w3.org/2000/svg">
<g id="Consume (&#230;&#182;&#136;&#232;&#180;&#185;)">
<path id="Vector (Stroke)" d="M28.3337 9.33301C28.3336 9.14904 28.1838 9 27.9998 9H3.99976C3.81591 9.00018 3.66692 9.14916 3.66675 9.33301V26.667C3.66692 26.8508 3.81591 26.9998 3.99976 27H27.9998C28.1838 27 28.3336 26.851 28.3337 26.667V9.33301ZM30.3337 26.667C30.3336 27.9555 29.2883 29 27.9998 29H3.99976C2.71136 28.9998 1.66692 27.9554 1.66675 26.667V9.33301C1.66692 8.04457 2.71136 7.00018 3.99976 7H27.9998C29.2883 7 30.3336 8.04447 30.3337 9.33301V26.667Z" fill="white"/>
<path id="Vector (Stroke)_2" d="M18.6266 11.9594C19.0172 11.569 19.6502 11.5689 20.0407 11.9594C20.431 12.3499 20.431 12.983 20.0407 13.3735L16.7067 16.7065C16.3162 17.097 15.6832 17.097 15.2926 16.7065L11.9596 13.3735C11.5691 12.9829 11.5691 12.3499 11.9596 11.9594C12.3502 11.5689 12.9832 11.5689 13.3737 11.9594L15.9997 14.5854L18.6266 11.9594Z" fill="white"/>
<path id="Vector (Stroke)_3" d="M20 15.6665C20.5523 15.6665 21 16.1142 21 16.6665C21 17.2188 20.5523 17.6665 20 17.6665H12C11.4477 17.6665 11 17.2188 11 16.6665C11 16.1142 11.4477 15.6665 12 15.6665H20Z" fill="white"/>
<path id="Vector (Stroke)_4" d="M20 19.6665C20.5523 19.6665 21 20.1142 21 20.6665C21 21.2188 20.5523 21.6665 20 21.6665H12C11.4477 21.6665 11 21.2188 11 20.6665C11 20.1142 11.4477 19.6665 12 19.6665H20Z" fill="white"/>
<path id="Vector (Stroke)_5" d="M15 23.3335V16.6665C15 16.1142 15.4477 15.6665 16 15.6665C16.5523 15.6665 17 16.1142 17 16.6665V23.3335L16.9951 23.4351C16.9441 23.9395 16.5179 24.3335 16 24.3335C15.4821 24.3335 15.0559 23.9395 15.0049 23.4351L15 23.3335Z" fill="white"/>
<path id="Vector (Stroke)_6" d="M27.8857 2C28.5011 2 29 2.44772 29 3C29 3.55228 28.5011 4 27.8857 4H4.1143C3.49889 4 3 3.55228 3 3C3 2.44772 3.49889 2 4.1143 2H27.8857Z" fill="white"/>
</g>
</svg>
