<svg width="32" height="32" viewBox="0 0 32 32" fill="none" xmlns="http://www.w3.org/2000/svg">
<g id="Headset-one (&#232;&#128;&#179;&#230;&#156;&#186;)">
<path id="Vector (Stroke)" d="M28.333 15.9995C28.3328 13.6064 26.3931 11.6665 24 11.6665V9.6665C27.4977 9.6665 30.3328 12.5018 30.333 15.9995C30.333 19.4973 27.4978 22.3335 24 22.3335V20.3335C26.3932 20.3335 28.333 18.3928 28.333 15.9995Z" fill="white"/>
<path id="Vector (Stroke)_2" d="M1.66675 15.9995C1.66692 12.502 4.50221 9.66668 7.99976 9.6665V11.6665C5.60678 11.6667 3.66692 13.6065 3.66675 15.9995C3.66675 18.3927 5.60667 20.3333 7.99976 20.3335V22.3335C4.5021 22.3333 1.66675 19.4972 1.66675 15.9995Z" fill="white"/>
<path id="Vector (Stroke)_3" d="M23 21.3335V10.6665C23 6.80051 19.866 3.6665 16 3.6665C12.134 3.6665 9 6.80051 9 10.6665V21.3335C8.99982 21.8856 8.55218 22.3335 8 22.3335C7.44782 22.3335 7.00018 21.8856 7 21.3335V10.6665C7 5.69594 11.0294 1.6665 16 1.6665C20.9706 1.6665 25 5.69594 25 10.6665V21.3335C24.9998 26.3039 20.9704 30.3335 16 30.3335C15.4478 30.3335 15.0002 29.8856 15 29.3335C15 28.7812 15.4477 28.3335 16 28.3335C19.8659 28.3335 22.9998 25.1993 23 21.3335Z" fill="white"/>
</g>
</svg>
