<svg width="32" height="32" viewBox="0 0 32 32" fill="none" xmlns="http://www.w3.org/2000/svg">
<g id="Config (&#233;&#133;&#141;&#231;&#189;&#174;)">
<path id="Vector (Stroke)" d="M15.2926 1.9598C15.683 1.56933 16.3161 1.56944 16.7066 1.9598L20.4137 5.66684H25.3336C25.8857 5.66701 26.3336 6.11466 26.3336 6.66684V11.5858L30.0406 15.2928C30.431 15.6832 30.4308 16.3163 30.0406 16.7069L26.3336 20.4139V25.3338C26.3334 25.8859 25.8856 26.3337 25.3336 26.3338H20.4137L16.7066 30.0409C16.3161 30.4311 15.683 30.4313 15.2926 30.0409L11.5855 26.3338H6.66659C6.11441 26.3338 5.66677 25.886 5.66659 25.3338V20.4139L1.95956 16.7069C1.5692 16.3163 1.56909 15.6833 1.95956 15.2928L5.66659 11.5858V6.66684C5.66659 6.11455 6.11431 5.66684 6.66659 5.66684H11.5855L15.2926 1.9598ZM12.7066 7.37387C12.5191 7.5613 12.2647 7.66684 11.9996 7.66684H7.66659V11.9998C7.66659 12.265 7.56106 12.5194 7.37362 12.7069L4.08065 15.9998L7.37362 19.2928C7.56108 19.4803 7.6665 19.7347 7.66659 19.9998V24.3338H11.9996L12.0992 24.3387C12.328 24.3615 12.5426 24.4628 12.7066 24.6268L15.9996 27.9198L19.2926 24.6268L19.3658 24.5604C19.5437 24.4144 19.7675 24.3339 19.9996 24.3338H24.3336V19.9998C24.3337 19.7347 24.4391 19.4803 24.6266 19.2928L27.9195 15.9998L24.6266 12.7069C24.439 12.5193 24.3336 12.2651 24.3336 11.9998V7.66684H19.9996C19.7345 7.66675 19.48 7.56133 19.2926 7.37387L15.9996 4.0809L12.7066 7.37387Z" fill="white"/>
<path id="Vector (Stroke)_2" d="M19 16C19 14.3432 17.6568 13 16 13C14.3432 13 13 14.3432 13 16C13 17.6568 14.3432 19 16 19C17.6568 19 19 17.6568 19 16ZM21 16C21 18.7614 18.7614 21 16 21C13.2386 21 11 18.7614 11 16C11 13.2386 13.2386 11 16 11C18.7614 11 21 13.2386 21 16Z" fill="white"/>
</g>
</svg>
