<svg width="33" height="32" viewBox="0 0 33 32" fill="none" xmlns="http://www.w3.org/2000/svg">
<g id="Translate (&#231;&#191;&#187;&#232;&#175;&#145;)">
<path id="Vector (Stroke)" d="M23 14C23.3936 14 23.7506 14.2131 23.912 14.5444L27.4771 21.8647L28.9057 24.6852C29.1396 25.147 28.9235 25.697 28.4233 25.9129C27.9231 26.1288 27.3273 25.9294 27.0934 25.4676L25.9353 23.179H20.0647L18.9066 25.4676C18.6727 25.9294 18.0769 26.1288 17.5767 25.9129C17.0765 25.697 16.8604 25.147 17.0943 24.6852L18.5229 21.8647L22.088 14.5444L22.1573 14.4264C22.3391 14.1634 22.6555 14 23 14ZM20.9748 21.3329H25.0252L23 17.1738L20.9748 21.3329Z" fill="white"/>
<path id="Vector (Stroke)_2" d="M12.553 4.10578C13.047 3.85879 13.6479 4.05907 13.8948 4.55305L14.8948 6.55305C15.1418 7.04703 14.9416 7.64785 14.4476 7.89484C13.9536 8.14183 13.3528 7.94156 13.1058 7.44758L12.1058 5.44758C11.8588 4.9536 12.0591 4.35277 12.553 4.10578Z" fill="white"/>
<path id="Vector (Stroke)_3" d="M19.0667 7C19.5821 7 20 7.44772 20 8C20 8.55228 19.5821 9 19.0667 9H6.93333C6.41787 9 6 8.55228 6 8C6 7.44772 6.41787 7 6.93333 7H19.0667Z" fill="white"/>
<path id="Vector (Stroke)_4" d="M8.67434 10.0341C9.1652 9.89785 9.67459 10.1823 9.81196 10.6696V10.6687C9.81212 10.6693 9.81223 10.671 9.81286 10.6732C9.81415 10.6776 9.81682 10.6856 9.82008 10.6965C9.82658 10.7182 9.83717 10.7523 9.85163 10.7976C9.88071 10.8888 9.9254 11.0251 9.98774 11.196C10.1128 11.5385 10.3057 12.0177 10.5719 12.5548C11.1114 13.6433 11.9211 14.9027 13.031 15.7791C14.2131 16.7124 15.7964 17.5745 17.1173 18.213C17.7712 18.5291 18.3485 18.7843 18.7615 18.9604C18.9679 19.0484 19.1331 19.1162 19.2456 19.1618C19.3017 19.1846 19.3451 19.2024 19.3736 19.2138C19.3876 19.2193 19.3984 19.2236 19.4051 19.2263C19.4084 19.2276 19.4109 19.2284 19.4124 19.229L19.4142 19.2299C19.8885 19.4147 20.122 19.9465 19.9361 20.4177C19.7616 20.8592 19.2804 21.0912 18.83 20.9664L18.7399 20.936H18.739C18.7383 20.9357 18.7374 20.9347 18.7363 20.9342C18.7338 20.9333 18.7299 20.9324 18.7255 20.9306C18.7166 20.9272 18.7039 20.9219 18.6876 20.9154C18.6549 20.9024 18.6076 20.8836 18.547 20.859C18.4255 20.8097 18.2503 20.7377 18.0331 20.6451C17.5992 20.4601 16.9943 20.1924 16.3087 19.8609C14.9503 19.2043 13.2231 18.2732 11.8817 17.214C10.4681 16.0979 9.51117 14.5669 8.91502 13.364C8.61341 12.7554 8.39559 12.213 8.25246 11.8208C8.18078 11.6243 8.12708 11.4645 8.0911 11.3517C8.07311 11.2953 8.06005 11.2501 8.05054 11.2183C8.04581 11.2025 8.0415 11.19 8.03882 11.1807C8.0375 11.1762 8.03694 11.172 8.03612 11.1691C8.03574 11.1678 8.03548 11.1665 8.03521 11.1655L8.03431 11.1646V11.1637C7.89713 10.6763 8.18358 10.1705 8.67434 10.0341Z" fill="white"/>
<path id="Vector (Stroke)_5" d="M16.1745 7.73651C16.282 7.23302 16.7726 6.91283 17.2707 7.02101C17.7691 7.12934 18.0863 7.62546 17.9792 8.12935L17.0769 7.93339L17.9792 8.13027V8.13209C17.979 8.13307 17.9786 8.13427 17.9783 8.13573C17.9776 8.139 17.9759 8.14388 17.9747 8.14941C17.9723 8.16035 17.9692 8.17564 17.9648 8.19498C17.9559 8.23452 17.9425 8.29162 17.9251 8.3636C17.8905 8.50749 17.8391 8.71322 17.7692 8.96699C17.6294 9.47408 17.4159 10.1777 17.1201 10.9677C16.5368 12.5258 15.5996 14.5129 14.2076 15.968C12.8707 17.3653 11.1435 18.5986 9.78054 19.4707C9.09365 19.9102 8.48766 20.2651 8.05245 20.5107C7.83467 20.6336 7.65888 20.7295 7.53682 20.7951C7.47588 20.8278 7.42825 20.8534 7.3953 20.8707C7.37898 20.8793 7.36637 20.8861 7.35744 20.8908C7.35295 20.8931 7.34916 20.8949 7.34662 20.8962C7.34545 20.8968 7.34466 20.8977 7.34391 20.8981H7.34211C6.88795 21.132 6.3323 20.9497 6.10081 20.4906C5.86948 20.0314 6.04973 19.4696 6.50376 19.2356L6.51278 19.231C6.51942 19.2275 6.52959 19.2219 6.54343 19.2146C6.57164 19.1998 6.61474 19.1771 6.67053 19.1471C6.7824 19.087 6.94705 18.9971 7.15281 18.881C7.56467 18.6485 8.14068 18.3106 8.79345 17.893C10.1099 17.0506 11.694 15.9103 12.8806 14.67C14.0119 13.4875 14.8407 11.7819 15.393 10.3068C15.665 9.58013 15.8623 8.93125 15.9906 8.46568C16.0547 8.23336 16.1018 8.04754 16.1322 7.92154C16.1473 7.85861 16.1584 7.81063 16.1655 7.77935C16.169 7.76374 16.1712 7.75179 16.1727 7.74472C16.1735 7.74138 16.1742 7.7387 16.1745 7.73742V7.73651Z" fill="white"/>
<path id="Vector (Stroke)_6" d="M27 13V2H2V25H13C13.5523 25 14 25.4477 14 26C14 26.5523 13.5523 27 13 27H1C0.447715 27 0 26.5523 0 26V1C0 0.447715 0.447715 0 1 0H28C28.5523 0 29 0.447715 29 1V13C29 13.5523 28.5523 14 28 14C27.4477 14 27 13.5523 27 13Z" fill="white"/>
</g>
</svg>
