<svg width="32" height="32" viewBox="0 0 32 32" fill="none" xmlns="http://www.w3.org/2000/svg">
<g id="Playback-progress (&#230;&#146;&#173;&#230;&#148;&#190;&#232;&#191;&#155;&#229;&#186;&#166;)">
<path id="Vector (Stroke)" d="M29.3337 2.3335L29.4353 2.33838C29.9397 2.38941 30.3337 2.8156 30.3337 3.3335V20.6665C30.3337 21.2187 29.8859 21.6663 29.3337 21.6665H2.66675C2.11446 21.6665 1.66675 21.2188 1.66675 20.6665V3.3335C1.66675 2.78121 2.11446 2.3335 2.66675 2.3335H29.3337ZM3.66675 19.6665H28.3337V4.3335H3.66675V19.6665Z" fill="white"/>
<path id="Vector (Stroke)_2" d="M14.1951 8.45168C14.5202 8.27778 14.9146 8.29696 15.2214 8.50149L19.2214 11.1685C19.4995 11.354 19.6667 11.6662 19.6667 12.0005C19.6666 12.3347 19.4995 12.6471 19.2214 12.8325L15.2214 15.4986C14.9146 15.7031 14.5202 15.7223 14.1951 15.5484C13.8699 15.3743 13.6667 15.0353 13.6667 14.6665V9.33352L13.6765 9.1968C13.7198 8.88255 13.9106 8.60393 14.1951 8.45168ZM15.6667 12.7974L16.863 11.9995L15.6667 11.2017V12.7974Z" fill="white"/>
<path id="Vector (Stroke)_3" d="M7 26C7.55228 26 8 26.4477 8 27C8 27.5523 7.55228 28 7 28H3C2.44772 28 2 27.5523 2 27C2 26.4477 2.44772 26 3 26H7Z" fill="white"/>
<path id="Vector (Stroke)_4" d="M29.0005 26C29.5526 26.0002 30.0005 26.4478 30.0005 27C30.0005 27.5522 29.5526 27.9998 29.0005 28H11.3335C10.7812 28 10.3335 27.5523 10.3335 27C10.3335 26.4477 10.7812 26 11.3335 26H29.0005Z" fill="white"/>
<path id="Vector (Stroke)_5" d="M10.3335 27C10.3335 26.4477 9.88581 26 9.3335 26C8.78118 26 8.3335 26.4477 8.3335 27C8.3335 27.5523 8.78118 28 9.3335 28C9.88581 28 10.3335 27.5523 10.3335 27ZM12.3335 27C12.3335 28.6569 10.9904 30 9.3335 30C7.67661 30 6.3335 28.6569 6.3335 27C6.3335 25.3431 7.67661 24 9.3335 24C10.9904 24 12.3335 25.3431 12.3335 27Z" fill="white"/>
</g>
</svg>
