<svg width="32" height="32" viewBox="0 0 32 32" fill="none" xmlns="http://www.w3.org/2000/svg">
<g id="Gift (&#231;&#164;&#188;&#231;&#137;&#169;)">
<path id="Vector (Stroke)" d="M27.3337 12.3335C27.8859 12.3337 28.3337 12.7813 28.3337 13.3335V29.3335C28.3337 29.8857 27.8859 30.3333 27.3337 30.3335H4.66675C4.11446 30.3335 3.66675 29.8858 3.66675 29.3335V13.3335C3.66675 12.7812 4.11446 12.3335 4.66675 12.3335H27.3337ZM5.66675 28.3335H26.3337V14.3335H5.66675V28.3335Z" fill="white"/>
<path id="Vector (Stroke)_2" d="M15 29.3335V13.3335C15 12.7812 15.4477 12.3335 16 12.3335C16.5523 12.3335 17 12.7812 17 13.3335V29.3335C17 29.8858 16.5523 30.3335 16 30.3335C15.4477 30.3335 15 29.8858 15 29.3335Z" fill="white"/>
<path id="Vector (Stroke)_3" d="M27.3337 29.0005C27.5177 29.0007 27.6667 29.1495 27.6667 29.3335C27.6667 29.5175 27.5177 29.6663 27.3337 29.6665H4.66675C4.48265 29.6665 4.33374 29.5176 4.33374 29.3335C4.33374 29.1494 4.48265 29.0005 4.66675 29.0005H27.3337Z" fill="white"/>
<path id="Vector (Stroke)_4" d="M29.3337 7L29.4353 7.00488C29.9397 7.05592 30.3337 7.4821 30.3337 8V13.333C30.3337 13.8852 29.8859 14.3328 29.3337 14.333H2.66675C2.11446 14.333 1.66675 13.8853 1.66675 13.333V8C1.66675 7.44772 2.11446 7 2.66675 7H29.3337ZM3.66675 12.333H28.3337V9H3.66675V12.333Z" fill="white"/>
<path id="Vector (Stroke)_5" d="M20.6266 1.9594C21.0172 1.56904 21.6502 1.56893 22.0407 1.9594C22.431 2.34988 22.431 2.98298 22.0407 3.37346L16.7067 8.70647C16.3162 9.09699 15.6832 9.09699 15.2926 8.70647L9.95964 3.37346C9.56912 2.98294 9.56912 2.34992 9.95964 1.9594C10.3502 1.56887 10.9832 1.56887 11.3737 1.9594L15.9997 6.58537L20.6266 1.9594Z" fill="white"/>
</g>
</svg>
