<svg width="40" height="40" viewBox="0 0 40 40" fill="none" xmlns="http://www.w3.org/2000/svg">
<g id="Frame">
<path id="Vector" d="M20 33.528C12.39 33.528 6.25 27.034 6.25 19.056C6.25 11.078 12.39 4.58398 20 4.58398C27.61 4.58398 33.75 11.078 33.75 19.056C33.75 27.034 27.61 33.528 20 33.528ZM20 31.028C26.198 31.028 31.25 25.682 31.25 19.056C31.25 12.428 26.198 7.08398 20 7.08398C13.802 7.08398 8.75 12.428 8.75 19.056C8.75 25.682 13.802 31.028 20 31.028ZM28.02 31.248C27.796 31.0065 27.6765 30.6863 27.6872 30.3572C27.698 30.028 27.8383 29.7163 28.0775 29.49C28.3168 29.2636 28.6357 29.1409 28.965 29.1484C29.2943 29.1558 29.6073 29.293 29.836 29.53L33.408 33.308C33.632 33.5495 33.7515 33.8696 33.7408 34.1988C33.73 34.528 33.5897 34.8396 33.3505 35.066C33.1112 35.2923 32.7923 35.4151 32.463 35.4076C32.1337 35.4001 31.8207 35.263 31.592 35.026L28.02 31.246V31.248Z" fill="#ffffff99"/>
</g>
</svg>
