<svg width="40" height="40" viewBox="0 0 40 40" fill="none" xmlns="http://www.w3.org/2000/svg">
<g id="Frame 1030">
<path id="Union" d="M20.5679 2.06152C26.4008 2.35734 31.0393 7.18053 31.0396 13.0869L31.0249 13.6553C30.8195 17.7061 28.43 21.1796 25.0112 22.9248C31.7939 24.6909 34.7471 29.9591 36.0161 33.7598C36.7521 35.9647 34.9648 37.9531 32.6401 37.9531H7.35889L7.14209 37.9473C4.99618 37.8323 3.37752 36.0185 3.92139 33.9658L3.98291 33.7598C5.25179 29.9595 8.20479 24.6914 14.9858 22.9248C11.568 21.1794 9.17952 17.7054 8.97412 13.6553L8.95947 13.0869C8.95973 6.98995 13.9025 2.04694 19.9995 2.04688L20.5679 2.06152ZM19.9995 25.3203C15.5092 25.3204 12.6175 26.7604 10.6802 28.5225C8.67837 30.3434 7.50323 32.6895 6.82861 34.71C6.82288 34.7272 6.81976 34.7408 6.81787 34.75C6.81983 34.7527 6.82184 34.7563 6.82471 34.7598C6.87602 34.8211 7.04757 34.9531 7.35889 34.9531H32.6401C32.951 34.9531 33.1217 34.8212 33.1733 34.7598C33.1761 34.7565 33.1783 34.7526 33.1802 34.75C33.1783 34.7408 33.1761 34.7272 33.1704 34.71C32.4958 32.6894 31.3208 30.3435 29.3188 28.5225C27.3815 26.7603 24.49 25.3203 19.9995 25.3203ZM19.9995 5.04688C15.5593 5.04694 11.9597 8.6468 11.9595 13.0869C11.9595 17.5272 15.5592 21.1269 19.9995 21.127C24.4399 21.1269 28.0395 17.5273 28.0396 13.0869C28.0393 8.64676 24.4397 5.04688 19.9995 5.04688ZM15.771 13.6953C16.4649 13.2435 17.3939 13.4392 17.8462 14.1328C18.3651 14.9293 20.3102 15.785 22.2114 14.002C22.8157 13.4355 23.7649 13.4662 24.3315 14.0703C24.8982 14.6745 24.8674 15.6227 24.2632 16.1895C21.0333 19.2189 16.8963 18.1693 15.3335 15.7715C14.8814 15.0775 15.0773 14.1476 15.771 13.6953Z" fill="#ffffff"/>
</g>
</svg>
