<svg width="40" height="40" viewBox="0 0 40 40" fill="none" xmlns="http://www.w3.org/2000/svg">
<g id="Frame 1029" clip-path="url(#clip0_370_3532)">
<path id="Union" d="M26.4556 0.884277C27.0932 0.356092 28.0383 0.445244 28.5669 1.08252C29.0955 1.72035 29.0075 2.66619 28.3696 3.19482L23.3501 7.35498H32.0708L32.3794 7.36279C35.5497 7.52344 38.0708 10.1448 38.0708 13.355V30.9673L38.063 31.2759C37.9074 34.3438 35.4474 36.804 32.3794 36.9595L32.0708 36.9673H7.9292L7.62061 36.9595C4.55278 36.8038 2.09254 34.3437 1.93701 31.2759L1.9292 30.9673V13.355C1.9292 10.0414 4.61569 7.35521 7.9292 7.35498H16.3599L11.5972 3.16553C10.9754 2.61842 10.9145 1.67129 11.4614 1.04932C12.0084 0.42736 12.9555 0.366835 13.5776 0.913574L19.8091 6.39209L26.4556 0.884277ZM7.9292 10.355C6.27254 10.3552 4.9292 11.6983 4.9292 13.355V30.9673C4.92932 32.6239 6.27262 33.9671 7.9292 33.9673H32.0708C33.7275 33.9673 35.0707 32.624 35.0708 30.9673V13.355C35.0708 11.6981 33.7276 10.355 32.0708 10.355H7.9292ZM14.687 14.9097C15.1051 14.1946 16.0236 13.9536 16.7388 14.3716L25.4292 19.4517C27.6525 20.7518 27.7571 23.9276 25.6245 25.3716L19.9438 29.2173C17.6198 30.7902 14.4823 29.1251 14.4819 26.3188V21.2974C14.4819 20.4689 15.1535 19.7974 15.9819 19.7974C16.8102 19.7975 17.4819 20.469 17.4819 21.2974V26.3188C17.4823 26.7194 17.9303 26.9574 18.2622 26.7329L23.9429 22.8872C24.247 22.6808 24.2318 22.2272 23.9146 22.0415L15.2251 16.9614C14.51 16.5433 14.269 15.6248 14.687 14.9097Z" fill="#b1b1b1"/>
</g>
<defs>
<clipPath id="clip0_370_3532">
<rect width="40" height="40" fill="white"/>
</clipPath>
</defs>
</svg>
