<svg width="40" height="40" viewBox="0 0 40 40" fill="none" xmlns="http://www.w3.org/2000/svg">
<g id="Frame 1028" clip-path="url(#clip0_370_3528)">
<path id="Union" d="M17.8477 0.0688477C18.4755 -0.105792 19.0608 0.0948324 19.3564 0.214355C20.0556 0.49714 20.8444 1.06047 21.5742 1.70752C23.0231 2.9921 24.7066 5.02884 25.4717 7.24268C26.3111 8.89641 26.6845 10.7431 26.9072 12.2241C27.0733 11.7844 27.2208 11.3471 27.333 10.9556C27.4111 10.6829 27.469 10.444 27.5068 10.2505C27.5256 10.1543 27.5375 10.0753 27.5449 10.0142C27.5485 9.98446 27.5515 9.96123 27.5527 9.94385C27.5533 9.93525 27.5535 9.92799 27.5537 9.92334C27.5539 9.91949 27.5537 9.91713 27.5537 9.9165C27.5538 9.42982 27.7941 8.97371 28.1963 8.69971C28.5986 8.42575 29.1115 8.36905 29.5645 8.54736C30.0095 8.72273 30.3926 9.01915 30.6768 9.271C30.9798 9.53957 31.2728 9.84974 31.5352 10.1509C32.0587 10.7519 32.5453 11.4126 32.8457 11.8169C33.4912 12.6855 34.1102 13.6179 34.582 14.7505C34.942 15.6145 35.2811 16.2675 35.6465 17.3999C36.2896 19.3932 36.585 21.471 36.585 23.6274C36.5847 32.6898 29.1397 40.0004 20 40.0005C10.8604 40.0003 3.4153 32.6897 3.41504 23.6274C3.41504 19.0522 5.44247 15.4843 7.61621 12.1274C7.95566 11.6033 8.4372 10.9383 8.94922 10.3257C9.43535 9.74403 10.049 9.08678 10.6514 8.68896L10.749 8.62842C10.9843 8.49349 11.2767 8.39532 11.6113 8.39502C11.9883 8.39471 12.3005 8.51842 12.5273 8.65771C12.9286 8.90413 13.1702 9.2652 13.29 9.46045C13.5472 9.8794 13.7792 10.4634 13.9375 10.8394C13.9527 10.8754 13.968 10.911 13.9824 10.9448C14.0715 10.8338 14.1656 10.7082 14.2617 10.5659C14.6596 9.97683 14.9952 9.27267 15.1855 8.64404C15.4037 7.92324 15.7538 6.53466 16.0498 5.13037C16.3557 3.67876 16.5604 2.40153 16.5605 1.82178C16.5606 1.54504 16.6153 1.16718 16.8486 0.803223C17.1004 0.410601 17.4718 0.173485 17.8477 0.0688477ZM19.3184 3.65186C19.2124 4.32383 19.0733 5.04974 18.9287 5.73584C18.6224 7.18915 18.253 8.66819 18.002 9.49756C17.7231 10.4185 17.2577 11.3883 16.7012 12.2124C16.1708 12.9975 15.432 13.8387 14.5273 14.2612C13.9633 14.5246 13.3596 14.491 12.8535 14.2339C12.4287 14.0178 12.1497 13.6845 11.9844 13.4546C11.69 13.0451 11.4557 12.5206 11.2861 12.1216C11.2606 12.1516 11.233 12.1813 11.207 12.2124C10.7736 12.7311 10.3624 13.3001 10.0859 13.7271C7.9467 17.0307 6.3584 19.972 6.3584 23.6274C6.35866 31.0257 12.4466 37.0579 20 37.0581C27.5536 37.058 33.6423 31.0258 33.6426 23.6274C33.6426 21.7428 33.3853 19.9737 32.8467 18.3042C32.5298 17.3223 32.3161 16.9645 31.8652 15.8823C31.5262 15.0685 31.0663 14.3563 30.4834 13.5718C30.302 13.3277 30.0849 13.0362 29.8506 12.7368C29.7195 13.1139 29.5753 13.4986 29.4209 13.8716C29.1332 14.5668 28.7966 15.2694 28.4443 15.8354C28.2698 16.1159 28.0664 16.4048 27.835 16.6499C27.6372 16.8593 27.2573 17.2142 26.707 17.3423C26.3502 17.4253 25.9514 17.4009 25.5752 17.2212C25.2264 17.0546 25.0021 16.8044 24.8672 16.6108C24.6205 16.2565 24.5049 15.8458 24.4404 15.5776C24.3035 15.0075 24.2101 14.202 24.1113 13.4595C23.8957 11.8397 23.5952 10.0012 22.8125 8.50146C22.7757 8.43095 22.7447 8.35727 22.7197 8.28174C22.1946 6.68934 20.8717 5.0176 19.6221 3.90967C19.5172 3.81672 19.4151 3.73114 19.3184 3.65186ZM28.498 22.0825C29.3101 22.1044 29.9512 22.7803 29.9297 23.5923C29.8717 25.7447 29.1708 28.1719 27.5781 30.0796C25.9464 32.0337 23.4569 33.3435 20.083 33.3003C19.2706 33.2897 18.6204 32.6215 18.6309 31.8091C18.6416 30.9969 19.3088 30.3465 20.1211 30.3569C22.6321 30.3891 24.2697 29.4508 25.3193 28.1938C26.408 26.8899 26.9434 25.1405 26.9873 23.5142C27.0092 22.7019 27.6858 22.0608 28.498 22.0825Z" fill="#ffffff"/>
</g>
<defs>
<clipPath id="clip0_370_3528">
<rect width="40" height="40" fill="white"/>
</clipPath>
</defs>
</svg>
