<svg width="40" height="40" viewBox="0 0 40 40" fill="none" xmlns="http://www.w3.org/2000/svg">
<g id="Frame 1027">
<path id="Union" d="M16.564 3.3833C18.5726 1.77636 21.4273 1.77641 23.436 3.3833L34.8179 12.4888C37.0713 14.2916 38.3833 17.0209 38.3833 19.9067V32.3218C38.3832 35.3592 35.9208 37.8218 32.8833 37.8218H25.813C24.9848 37.8216 24.3131 37.15 24.313 36.3218V26.939C24.3128 24.5574 22.3811 22.6265 19.9995 22.6265C17.6183 22.6269 15.6872 24.5577 15.687 26.939V36.3218C15.6869 37.1501 15.0154 37.8218 14.187 37.8218H7.1167C4.07934 37.8216 1.61681 35.3591 1.6167 32.3218V19.9067C1.61672 17.021 2.92883 14.2916 5.18213 12.4888L16.564 3.3833ZM20.1919 26.021C21.0203 26.021 21.6919 26.6926 21.6919 27.521V35.0728C21.6917 35.901 21.0202 36.5728 20.1919 36.5728C19.3636 36.5727 18.6921 35.901 18.6919 35.0728V27.521C18.6919 26.6926 19.3635 26.021 20.1919 26.021ZM21.562 5.7251C20.649 4.99476 19.351 4.99472 18.438 5.7251L7.05615 14.8315C5.51457 16.0651 4.61672 17.9324 4.6167 19.9067V32.3218C4.61681 33.7023 5.7362 34.8216 7.1167 34.8218H12.687V26.939C12.6872 22.9008 15.9614 19.6269 19.9995 19.6265C24.038 19.6265 27.3128 22.9005 27.313 26.939V34.8218H32.8833C34.2639 34.8218 35.3832 33.7024 35.3833 32.3218V19.9067C35.3833 17.9323 34.4856 16.065 32.9438 14.8315L21.562 5.7251Z" fill="#b1b1b1"/>
</g>
</svg>
