<svg width="40" height="40" viewBox="0 0 40 40" fill="none" xmlns="http://www.w3.org/2000/svg">
    <g id="Frame">
        <path id="Vector"
            d="M19.8225 2.5C10.255 2.5 2.5 10.2637 2.5 19.84C2.5 29.415 10.255 37.1788 19.8225 37.1788C29.3887 37.1788 37.145 29.415 37.145 19.84C37.145 10.2637 29.3887 2.5 19.8225 2.5ZM19.8225 35.4456C11.2119 35.4456 4.23125 28.4581 4.23125 19.84C4.23125 11.2187 11.2125 4.23312 19.8225 4.23312C28.4331 4.23312 35.4137 11.2206 35.4137 19.84C35.4137 28.4581 28.4331 35.4456 19.8225 35.4456ZM27.685 18.6112C24.9906 16.775 20.1037 14.0262 17.3187 12.325C16.1769 11.6025 15.2181 11.8919 15.1256 13.165C15.0581 16.5731 15.1256 23.1462 15.1256 26.615C15.1819 27.9056 16.3206 28.0763 17.31 27.5556L27.6625 21.2788C27.6431 21.2681 29.7825 20.0887 27.6856 18.6112H27.685Z"
            fill="white" />
    </g>
</svg>
